<svg width="19" height="19" viewBox="0 0 19 19" fill="none" xmlns="http://www.w3.org/2000/svg">
<path d="M18.3203 3.5137V5.40303H15.4863V8.23704H13.597V5.40303H10.7629V3.5137H13.597V0.679688H15.4863V3.5137H18.3203ZM10.2906 10.1264C10.6665 10.1263 11.027 9.9768 11.2928 9.71088C11.5585 9.44496 11.7077 9.08437 11.7076 8.70843C11.7075 8.33249 11.558 7.972 11.2921 7.70626C11.0262 7.44052 10.6656 7.2913 10.2897 7.29143C10.1035 7.29149 9.91921 7.32822 9.74726 7.39951C9.5753 7.4708 9.41908 7.57526 9.2875 7.70693C9.15592 7.8386 9.05156 7.9949 8.98038 8.1669C8.9092 8.3389 8.8726 8.52323 8.87266 8.70938C8.87272 8.89552 8.90945 9.07983 8.98074 9.25179C9.05203 9.42374 9.1565 9.57996 9.28816 9.71154C9.41983 9.84313 9.57613 9.94748 9.74813 10.0187C9.92013 10.0898 10.1045 10.1264 10.2906 10.1264ZM13.597 13.1814L13.1123 12.643C12.9352 12.4457 12.7184 12.2879 12.4762 12.1799C12.2341 12.0719 11.9718 12.0161 11.7067 12.0161C11.4415 12.0161 11.1793 12.0719 10.9371 12.1799C10.6949 12.2879 10.4782 12.4457 10.301 12.643L9.6813 13.3335L5.09493 8.23704L2.26092 11.3856V5.40303H8.87361V3.5137H2.26092C1.75984 3.5137 1.27928 3.71275 0.924956 4.06707C0.570637 4.42139 0.371582 4.90195 0.371582 5.40303V16.7391C0.371582 17.2401 0.570637 17.7207 0.924956 18.075C1.27928 18.4293 1.75984 18.6284 2.26092 18.6284H13.597C14.098 18.6284 14.5786 18.4293 14.9329 18.075C15.2872 17.7207 15.4863 17.2401 15.4863 16.7391V10.1264H13.597V13.1814Z" fill="#503B7C"/>
</svg>
