<svg width="23" height="22" viewBox="0 0 23 22" fill="none" xmlns="http://www.w3.org/2000/svg">
<path d="M21.6842 19.6838H1.14239C0.648382 19.6838 0.249268 20.0725 0.249268 20.5538V21.5325C0.249268 21.6521 0.349744 21.75 0.472548 21.75H22.3541C22.4769 21.75 22.5773 21.6521 22.5773 21.5325V20.5538C22.5773 20.0725 22.1782 19.6838 21.6842 19.6838ZM4.31577 17.4C4.37159 17.4 4.42741 17.3946 4.48323 17.3864L9.17771 16.5844C9.23353 16.5735 9.28656 16.549 9.32563 16.5083L21.1567 4.98347C21.1826 4.95832 21.2031 4.92844 21.2171 4.89555C21.2311 4.86266 21.2383 4.8274 21.2383 4.7918C21.2383 4.75619 21.2311 4.72093 21.2171 4.68804C21.2031 4.65515 21.1826 4.62528 21.1567 4.60013L16.5181 0.0788438C16.465 0.0271875 16.3953 0 16.3199 0C16.2445 0 16.1748 0.0271875 16.1217 0.0788438L4.29065 11.6036C4.24878 11.6444 4.22366 11.6933 4.2125 11.7477L3.38915 16.3207C3.362 16.4663 3.3717 16.6162 3.41742 16.7574C3.46313 16.8985 3.54348 17.0267 3.65151 17.1308C3.83571 17.3048 4.06737 17.4 4.31577 17.4Z" fill="#989FC9"/>
</svg>
