<svg width="30" height="30" viewBox="0 0 30 30" fill="none" xmlns="http://www.w3.org/2000/svg">
<path d="M15.357 0C20.0736 0 24.4407 2.0925 27.3366 5.616C27.4191 5.71588 27.4807 5.83133 27.5177 5.9555C27.5547 6.07966 27.5663 6.21 27.5519 6.33875C27.5375 6.4675 27.4973 6.59204 27.4338 6.70495C27.3703 6.81786 27.2847 6.91684 27.1822 6.996C26.9734 7.15965 26.7091 7.23552 26.4454 7.20752C26.1816 7.17952 25.9392 7.04984 25.7694 6.846C24.5031 5.31184 22.9122 4.07794 21.1113 3.23335C19.3104 2.38876 17.3445 1.95453 15.3555 1.962C7.98443 1.962 2.00811 7.8 2.00811 15C2.00811 22.2 7.98443 28.038 15.3555 28.038C17.3732 28.0457 19.3667 27.599 21.1882 26.7309C23.0097 25.8628 24.6124 24.5957 25.8774 23.0235C26.0443 22.8176 26.2848 22.6847 26.5479 22.6531C26.8111 22.6214 27.0762 22.6935 27.2871 22.854C27.3906 22.9318 27.4773 23.0296 27.5422 23.1416C27.6071 23.2536 27.6489 23.3775 27.665 23.506C27.6811 23.6344 27.6712 23.7648 27.6359 23.8893C27.6006 24.0139 27.5407 24.1301 27.4596 24.231C24.5682 27.846 20.1425 30 15.357 30C6.87315 30 0 23.2845 0 15C0 6.7155 6.87465 0 15.357 0ZM25.642 10.74L29.7002 14.8005C30.0931 15.192 30.1006 15.8205 29.7182 16.2045L25.7529 20.169C25.5648 20.3532 25.3112 20.455 25.048 20.4522C24.7847 20.4494 24.5334 20.3421 24.3492 20.154C24.2558 20.0629 24.1812 19.9542 24.1298 19.8342C24.0784 19.7142 24.0511 19.5852 24.0496 19.4547C24.048 19.3241 24.0723 19.1946 24.1208 19.0734C24.1694 18.9522 24.2414 18.8418 24.3327 18.7485L26.6528 16.428H11.1908C11.0604 16.4296 10.931 16.4055 10.8099 16.357C10.6889 16.3086 10.5786 16.2368 10.4852 16.1457C10.3919 16.0546 10.3175 15.946 10.2661 15.8261C10.2148 15.7062 10.1876 15.5774 10.186 15.447C10.186 14.904 10.6359 14.4645 11.1908 14.4645H26.5913L24.2547 12.1275C24.0664 11.9435 23.9589 11.6922 23.9558 11.4289C23.9527 11.1656 24.0543 10.9119 24.2382 10.7235C24.4266 10.5395 24.6803 10.4379 24.9435 10.441C25.2068 10.4441 25.458 10.5517 25.642 10.74Z"/>
</svg>
