<svg width="55" height="21" viewBox="0 0 55 21" fill="none" xmlns="http://www.w3.org/2000/svg">
<path d="M4.01807 16.14C2.89807 16.14 2.03473 15.8227 1.42807 15.188C0.8214 14.544 0.518066 13.6013 0.518066 12.36C0.518066 11.1373 0.812066 10.204 1.40007 9.56C1.98807 8.90667 2.81407 8.58 3.87807 8.58C4.37273 8.58 4.84407 8.61267 5.29207 8.678C5.4694 8.706 5.61407 8.79 5.72607 8.93C5.8474 9.07 5.90807 9.23333 5.90807 9.42C5.90807 9.57867 5.84273 9.70467 5.71207 9.798C5.59073 9.89133 5.45073 9.91933 5.29207 9.882C4.83473 9.77933 4.40073 9.728 3.99007 9.728C3.34607 9.728 2.86073 9.938 2.53407 10.358C2.21673 10.778 2.05807 11.4453 2.05807 12.36C2.05807 13.2933 2.22607 13.9653 2.56207 14.376C2.9074 14.7867 3.43007 14.992 4.13007 14.992C4.56873 14.992 4.98873 14.9313 5.39007 14.81C5.5394 14.7633 5.67473 14.7867 5.79607 14.88C5.9174 14.964 5.97807 15.0807 5.97807 15.23C5.97807 15.4167 5.9174 15.5847 5.79607 15.734C5.67473 15.8833 5.5254 15.9767 5.34807 16.014C4.90007 16.098 4.45673 16.14 4.01807 16.14Z" fill="#333333"/>
<path d="M9.71803 15.776C9.5687 15.9253 9.39137 16 9.18604 16C8.9807 16 8.7987 15.9253 8.64004 15.776C8.4907 15.6267 8.41604 15.4447 8.41604 15.23V6.27C8.41604 6.05533 8.4907 5.87333 8.64004 5.724C8.7987 5.57467 8.9807 5.5 9.18604 5.5C9.39137 5.5 9.5687 5.57467 9.71803 5.724C9.8767 5.87333 9.95604 6.05533 9.95604 6.27V15.23C9.95604 15.4447 9.8767 15.6267 9.71803 15.776Z" fill="#333333"/>
<path d="M15.2651 9.672C14.2011 9.672 13.6038 10.302 13.4731 11.562C13.4544 11.646 13.4918 11.688 13.5851 11.688H16.7211C16.7958 11.688 16.8331 11.646 16.8331 11.562C16.7771 10.302 16.2544 9.672 15.2651 9.672ZM15.6151 16.14C14.4484 16.14 13.5478 15.8227 12.9131 15.188C12.2878 14.5533 11.9751 13.6107 11.9751 12.36C11.9751 11.1093 12.2551 10.1667 12.8151 9.532C13.3844 8.89733 14.2011 8.58 15.2651 8.58C17.2064 8.58 18.2098 9.71867 18.2751 11.996C18.2844 12.22 18.2051 12.4067 18.0371 12.556C17.8691 12.7053 17.6731 12.78 17.4491 12.78H13.5711C13.4964 12.78 13.4591 12.8173 13.4591 12.892C13.5711 14.3293 14.3364 15.048 15.7551 15.048C16.2498 15.048 16.7351 14.9687 17.2111 14.81C17.3511 14.7633 17.4818 14.782 17.6031 14.866C17.7244 14.95 17.7851 15.0667 17.7851 15.216C17.7851 15.3933 17.7291 15.552 17.6171 15.692C17.5051 15.832 17.3604 15.9253 17.1831 15.972C16.6698 16.084 16.1471 16.14 15.6151 16.14Z" fill="#333333"/>
<path d="M30.4409 9.672C29.3769 9.672 28.7795 10.302 28.6489 11.562C28.6302 11.646 28.6675 11.688 28.7609 11.688H31.8969C31.9715 11.688 32.0089 11.646 32.0089 11.562C31.9529 10.302 31.4302 9.672 30.4409 9.672ZM30.7909 16.14C29.6242 16.14 28.7235 15.8227 28.0889 15.188C27.4635 14.5533 27.1509 13.6107 27.1509 12.36C27.1509 11.1093 27.4309 10.1667 27.9909 9.532C28.5602 8.89733 29.3769 8.58 30.4409 8.58C32.3822 8.58 33.3855 9.71867 33.4509 11.996C33.4602 12.22 33.3809 12.4067 33.2129 12.556C33.0449 12.7053 32.8489 12.78 32.6249 12.78H28.7469C28.6722 12.78 28.6349 12.8173 28.6349 12.892C28.7469 14.3293 29.5122 15.048 30.9309 15.048C31.4255 15.048 31.9109 14.9687 32.3869 14.81C32.5269 14.7633 32.6575 14.782 32.7789 14.866C32.9002 14.95 32.9609 15.0667 32.9609 15.216C32.9609 15.3933 32.9049 15.552 32.7929 15.692C32.6809 15.832 32.5362 15.9253 32.3589 15.972C31.8455 16.084 31.3229 16.14 30.7909 16.14Z" fill="#333333"/>
<path d="M36.367 15.776C36.2177 15.9253 36.0357 16 35.821 16C35.6064 16 35.4244 15.9253 35.275 15.776C35.1257 15.6267 35.051 15.4447 35.051 15.23V9.448C35.051 9.24267 35.121 9.07 35.261 8.93C35.401 8.79 35.5737 8.72 35.779 8.72C35.9844 8.72 36.157 8.79 36.297 8.93C36.4464 9.07 36.521 9.24267 36.521 9.448V10.106C36.521 10.1153 36.5257 10.12 36.535 10.12C36.5537 10.12 36.563 10.1153 36.563 10.106C36.843 9.72333 37.2164 9.41067 37.683 9.168C38.1497 8.916 38.6584 8.77133 39.209 8.734C39.377 8.72467 39.517 8.776 39.629 8.888C39.7504 9 39.811 9.14 39.811 9.308C39.811 9.476 39.7504 9.62067 39.629 9.742C39.517 9.854 39.377 9.91467 39.209 9.924C38.313 9.96133 37.6504 10.1947 37.221 10.624C36.801 11.044 36.591 11.6693 36.591 12.5V15.23C36.591 15.4447 36.5164 15.6267 36.367 15.776Z" fill="#333333"/>
<path d="M43.3372 15.776C43.1878 15.9253 43.0105 16 42.8052 16C42.5998 16 42.4178 15.9253 42.2592 15.776C42.1098 15.6267 42.0352 15.4447 42.0352 15.23V6.27C42.0352 6.05533 42.1098 5.87333 42.2592 5.724C42.4178 5.57467 42.5998 5.5 42.8052 5.5C43.0105 5.5 43.1878 5.57467 43.3372 5.724C43.4958 5.87333 43.5752 6.05533 43.5752 6.27V15.23C43.5752 15.4447 43.4958 15.6267 43.3372 15.776Z" fill="#333333"/>
<path d="M47.9462 15.888L45.6502 9.448C45.5849 9.27067 45.6082 9.10733 45.7202 8.958C45.8322 8.79933 45.9816 8.72 46.1682 8.72C46.4016 8.72 46.6116 8.79 46.7982 8.93C46.9849 9.06067 47.1109 9.23333 47.1762 9.448L48.7442 14.306C48.7442 14.3153 48.7489 14.32 48.7582 14.32C48.7676 14.32 48.7722 14.3153 48.7722 14.306L50.5222 9.42C50.6062 9.20533 50.7369 9.03733 50.9142 8.916C51.0916 8.78533 51.2922 8.72 51.5162 8.72C51.6936 8.72 51.8289 8.79467 51.9222 8.944C52.0249 9.084 52.0436 9.238 51.9782 9.406L48.4082 18.394C48.3242 18.5993 48.1889 18.7627 48.0022 18.884C47.8156 19.0147 47.6102 19.08 47.3862 19.08C47.2182 19.08 47.0829 19.0053 46.9802 18.856C46.8869 18.7067 46.8729 18.5527 46.9382 18.394L47.9462 16.112C47.9649 16.0747 47.9742 16.0373 47.9742 16C47.9742 15.9627 47.9649 15.9253 47.9462 15.888Z" fill="#333333"/>
<path fill-rule="evenodd" clip-rule="evenodd" d="M27.767 4.60002L54.0001 4.59996C54.3314 4.59996 54.6001 4.33133 54.6001 3.99996C54.6001 3.66859 54.3314 3.39996 54.0001 3.39996L27.0181 3.40003L26.8532 3.73483C26.3594 4.73683 25.6111 6.39166 25.3048 7.45333C25.2515 7.63807 25.1983 7.82271 25.1451 8.00725C24.487 10.2906 23.8335 12.558 23.0675 14.7788C23.0658 14.7744 23.0642 14.77 23.0626 14.7657C23.022 14.6575 22.9784 14.5415 22.9287 14.4133C22.608 13.5855 21.1647 9.49883 20.6961 8.17208C20.6336 7.99518 20.5885 7.86734 20.5656 7.80284C20.455 7.49049 20.1121 7.32697 19.7997 7.43762C19.4874 7.54826 19.3239 7.89117 19.4345 8.20352C19.4562 8.26476 19.4997 8.38801 19.5603 8.55958C20.023 9.86982 21.481 13.9981 21.8098 14.8468C21.8486 14.947 21.8891 15.0546 21.9295 15.1621C21.99 15.3228 22.0503 15.4831 22.1044 15.6168C22.1911 15.8313 22.3053 16.0939 22.4567 16.2791C22.5323 16.3715 22.6787 16.5226 22.9087 16.5789C23.1816 16.6458 23.4165 16.5458 23.5706 16.4182C23.706 16.306 23.799 16.1603 23.8652 16.0356C23.9359 15.9025 24.0012 15.7442 24.0641 15.5656C24.9013 13.1868 25.6018 10.7559 26.2963 8.3461C26.3501 8.15927 26.4039 7.97257 26.4577 7.78603C26.703 6.93599 27.2932 5.58914 27.767 4.60002Z" fill="#9AEC80"/>
</svg>
