<svg width="1920" height="1081" viewBox="0 0 1920 1081" fill="none" xmlns="http://www.w3.org/2000/svg">
<rect width="1920" height="1081" fill="#F5F5F5"/>
<g clip-path="url(#clip0_14_18)">
<path d="M623.801 877.588C625.23 872.254 622.064 866.77 616.729 865.341L529.796 842.047C524.461 840.618 518.978 843.783 517.549 849.118C516.119 854.453 519.285 859.936 524.62 861.366L601.894 882.071L581.188 959.345C579.759 964.68 582.925 970.163 588.259 971.593C593.594 973.022 599.077 969.856 600.507 964.522L623.801 877.588ZM-156 1331.19L619.141 883.66L609.141 866.34L-166 1313.87L-156 1331.19Z" fill="#F77D88"/>
<path d="M252.801 646.588C254.23 641.254 251.064 635.77 245.729 634.341L158.796 611.047C153.461 609.618 147.978 612.783 146.549 618.118C145.119 623.453 148.285 628.936 153.62 630.366L230.894 651.071L210.188 728.345C208.759 733.68 211.925 739.163 217.259 740.593C222.594 742.022 228.077 738.856 229.507 733.522L252.801 646.588ZM-527 1100.19L248.141 652.66L238.141 635.34L-537 1082.87L-527 1100.19Z" fill="#F77D88"/>
<path d="M615.825 583.588C617.255 578.254 614.089 572.77 608.754 571.341L521.821 548.047C516.486 546.618 511.003 549.783 509.573 555.118C508.144 560.453 511.31 565.936 516.644 567.366L593.918 588.071L573.213 665.345C571.783 670.68 574.949 676.163 580.284 677.593C585.619 679.022 591.102 675.856 592.531 670.522L615.825 583.588ZM-465 1210.98L611.166 589.66L601.166 572.34L-475 1193.66L-465 1210.98Z" fill="#989FC9"/>
<path d="M1320.83 877.588C1322.25 872.254 1319.09 866.77 1313.75 865.341L1226.82 842.047C1221.49 840.618 1216 843.783 1214.57 849.118C1213.14 854.453 1216.31 859.936 1221.64 861.366L1298.92 882.071L1278.21 959.345C1276.78 964.68 1279.95 970.163 1285.28 971.593C1290.62 973.022 1296.1 969.856 1297.53 964.522L1320.83 877.588ZM240 1504.98L1316.17 883.66L1306.17 866.34L230 1487.66L240 1504.98Z" fill="#989FC9"/>
<path d="M1346.86 300.037C1348.29 294.702 1345.12 289.219 1339.79 287.789L1252.85 264.495C1247.52 263.066 1242.04 266.232 1240.61 271.566C1239.18 276.901 1242.34 282.385 1247.68 283.814L1324.95 304.519L1304.25 381.794C1302.82 387.128 1305.98 392.612 1311.32 394.041C1316.65 395.47 1322.14 392.305 1323.56 386.97L1346.86 300.037ZM-162.798 1175.02L1342.2 306.109L1332.2 288.788L-172.798 1157.7L-162.798 1175.02Z" fill="#9AEC80"/>
<path d="M1370.66 599.588C1372.09 594.254 1368.92 588.77 1363.58 587.341L1276.65 564.047C1271.32 562.618 1265.83 565.784 1264.4 571.118C1262.97 576.453 1266.14 581.936 1271.47 583.366L1348.75 604.071L1328.04 681.345C1326.61 686.68 1329.78 692.163 1335.11 693.593C1340.45 695.022 1345.93 691.856 1347.36 686.522L1370.66 599.588ZM-139 1474.57L1366 605.66L1356 588.34L-149 1457.25L-139 1474.57Z" fill="#9AEC80"/>
</g>
<g filter="url(#filter0_d_14_18)">
<rect x="750" y="274" width="420" height="608" rx="15" fill="white"/>
</g>
<g filter="url(#filter1_d_14_18)">
<path d="M829.764 547.792V535.192H834.894C835.578 535.192 836.196 535.366 836.748 535.714C837.312 536.05 837.762 536.512 838.098 537.1C838.434 537.688 838.602 538.342 838.602 539.062C838.602 539.782 838.434 540.436 838.098 541.024C837.762 541.612 837.312 542.086 836.748 542.446C836.196 542.794 835.578 542.968 834.894 542.968H831.708V547.792H829.764ZM831.708 541.096H834.858C835.182 541.096 835.476 541.006 835.74 540.826C836.004 540.634 836.214 540.388 836.37 540.088C836.538 539.776 836.622 539.434 836.622 539.062C836.622 538.69 836.538 538.354 836.37 538.054C836.214 537.754 836.004 537.514 835.74 537.334C835.476 537.154 835.182 537.064 834.858 537.064H831.708V541.096ZM840.74 547.792V534.472H842.594V547.792H840.74ZM848.682 547.972C847.902 547.972 847.188 547.756 846.54 547.324C845.904 546.892 845.394 546.304 845.01 545.56C844.626 544.816 844.434 543.976 844.434 543.04C844.434 542.092 844.626 541.252 845.01 540.52C845.406 539.776 845.934 539.194 846.594 538.774C847.266 538.354 848.016 538.144 848.844 538.144C849.336 538.144 849.786 538.216 850.194 538.36C850.602 538.504 850.956 538.708 851.256 538.972C851.568 539.224 851.82 539.518 852.012 539.854C852.216 540.19 852.342 540.55 852.39 540.934L851.976 540.79V538.342H853.848V547.792H851.976V545.542L852.408 545.416C852.336 545.74 852.186 546.058 851.958 546.37C851.742 546.67 851.46 546.94 851.112 547.18C850.776 547.42 850.398 547.612 849.978 547.756C849.57 547.9 849.138 547.972 848.682 547.972ZM849.168 546.262C849.732 546.262 850.23 546.124 850.662 545.848C851.094 545.572 851.43 545.194 851.67 544.714C851.922 544.222 852.048 543.664 852.048 543.04C852.048 542.428 851.922 541.882 851.67 541.402C851.43 540.922 851.094 540.544 850.662 540.268C850.23 539.992 849.732 539.854 849.168 539.854C848.616 539.854 848.124 539.992 847.692 540.268C847.272 540.544 846.936 540.922 846.684 541.402C846.444 541.882 846.324 542.428 846.324 543.04C846.324 543.664 846.444 544.222 846.684 544.714C846.936 545.194 847.272 545.572 847.692 545.848C848.124 546.124 848.616 546.262 849.168 546.262ZM860.451 547.972C859.575 547.972 858.789 547.756 858.093 547.324C857.409 546.892 856.863 546.304 856.455 545.56C856.059 544.816 855.861 543.982 855.861 543.058C855.861 542.134 856.059 541.3 856.455 540.556C856.863 539.812 857.409 539.224 858.093 538.792C858.789 538.36 859.575 538.144 860.451 538.144C861.291 538.144 862.053 538.318 862.737 538.666C863.433 539.002 863.961 539.464 864.321 540.052L863.295 541.312C863.103 541.036 862.857 540.784 862.557 540.556C862.257 540.328 861.939 540.148 861.603 540.016C861.267 539.884 860.943 539.818 860.631 539.818C860.055 539.818 859.539 539.962 859.083 540.25C858.639 540.526 858.285 540.91 858.021 541.402C857.757 541.894 857.625 542.446 857.625 543.058C857.625 543.67 857.763 544.222 858.039 544.714C858.315 545.194 858.681 545.578 859.137 545.866C859.593 546.154 860.097 546.298 860.649 546.298C860.973 546.298 861.285 546.244 861.585 546.136C861.897 546.028 862.197 545.866 862.485 545.65C862.773 545.434 863.043 545.17 863.295 544.858L864.321 546.118C863.937 546.658 863.385 547.102 862.665 547.45C861.957 547.798 861.219 547.972 860.451 547.972ZM870.479 547.972C869.507 547.972 868.643 547.768 867.887 547.36C867.143 546.94 866.555 546.37 866.123 545.65C865.703 544.93 865.493 544.102 865.493 543.166C865.493 542.422 865.613 541.744 865.853 541.132C866.093 540.52 866.423 539.992 866.843 539.548C867.275 539.092 867.785 538.744 868.373 538.504C868.973 538.252 869.621 538.126 870.317 538.126C870.929 538.126 871.499 538.246 872.027 538.486C872.555 538.714 873.011 539.032 873.395 539.44C873.791 539.848 874.091 540.334 874.295 540.898C874.511 541.45 874.613 542.056 874.601 542.716L874.583 543.508H866.861L866.447 542.032H872.981L872.711 542.338V541.906C872.675 541.51 872.543 541.156 872.315 540.844C872.087 540.532 871.799 540.286 871.451 540.106C871.103 539.926 870.725 539.836 870.317 539.836C869.669 539.836 869.123 539.962 868.679 540.214C868.235 540.454 867.899 540.814 867.671 541.294C867.443 541.762 867.329 542.344 867.329 543.04C867.329 543.7 867.467 544.276 867.743 544.768C868.019 545.248 868.409 545.62 868.913 545.884C869.417 546.148 869.999 546.28 870.659 546.28C871.127 546.28 871.559 546.202 871.955 546.046C872.363 545.89 872.801 545.608 873.269 545.2L874.205 546.514C873.917 546.802 873.563 547.054 873.143 547.27C872.735 547.486 872.297 547.66 871.829 547.792C871.373 547.912 870.923 547.972 870.479 547.972ZM876.616 547.792V534.472H878.47V540.286L878.146 540.502C878.266 540.082 878.5 539.698 878.848 539.35C879.196 538.99 879.61 538.702 880.09 538.486C880.57 538.258 881.062 538.144 881.566 538.144C882.286 538.144 882.886 538.288 883.366 538.576C883.846 538.852 884.206 539.278 884.446 539.854C884.686 540.43 884.806 541.156 884.806 542.032V547.792H882.952V542.158C882.952 541.618 882.88 541.174 882.736 540.826C882.592 540.466 882.37 540.208 882.07 540.052C881.77 539.884 881.398 539.812 880.954 539.836C880.594 539.836 880.264 539.896 879.964 540.016C879.664 540.124 879.4 540.28 879.172 540.484C878.956 540.688 878.782 540.928 878.65 541.204C878.53 541.468 878.47 541.756 878.47 542.068V547.792H877.552C877.396 547.792 877.24 547.792 877.084 547.792C876.928 547.792 876.772 547.792 876.616 547.792ZM891.569 547.972C890.645 547.972 889.817 547.762 889.085 547.342C888.365 546.91 887.795 546.328 887.375 545.596C886.955 544.852 886.745 544.006 886.745 543.058C886.745 542.11 886.955 541.27 887.375 540.538C887.795 539.794 888.365 539.212 889.085 538.792C889.817 538.36 890.645 538.144 891.569 538.144C892.481 538.144 893.297 538.36 894.017 538.792C894.749 539.212 895.325 539.794 895.745 540.538C896.165 541.27 896.375 542.11 896.375 543.058C896.375 544.006 896.165 544.852 895.745 545.596C895.325 546.328 894.749 546.91 894.017 547.342C893.297 547.762 892.481 547.972 891.569 547.972ZM891.569 546.28C892.133 546.28 892.637 546.142 893.081 545.866C893.525 545.578 893.873 545.194 894.125 544.714C894.377 544.222 894.497 543.67 894.485 543.058C894.497 542.434 894.377 541.882 894.125 541.402C893.873 540.91 893.525 540.526 893.081 540.25C892.637 539.974 892.133 539.836 891.569 539.836C891.005 539.836 890.495 539.98 890.039 540.268C889.595 540.544 889.247 540.928 888.995 541.42C888.743 541.9 888.623 542.446 888.635 543.058C888.623 543.67 888.743 544.222 888.995 544.714C889.247 545.194 889.595 545.578 890.039 545.866C890.495 546.142 891.005 546.28 891.569 546.28ZM898.432 547.792V534.472H900.286V547.792H898.432ZM906.679 547.972C905.815 547.972 905.041 547.762 904.357 547.342C903.685 546.91 903.151 546.328 902.755 545.596C902.359 544.852 902.161 544.006 902.161 543.058C902.161 542.11 902.353 541.27 902.737 540.538C903.133 539.794 903.667 539.212 904.339 538.792C905.011 538.36 905.773 538.144 906.625 538.144C907.093 538.144 907.543 538.222 907.975 538.378C908.419 538.522 908.815 538.726 909.163 538.99C909.511 539.242 909.781 539.524 909.973 539.836C910.177 540.136 910.279 540.442 910.279 540.754L909.739 540.79V534.472H911.593V547.792H909.739V545.542H910.099C910.099 545.83 910.003 546.118 909.811 546.406C909.619 546.682 909.361 546.94 909.037 547.18C908.725 547.42 908.359 547.612 907.939 547.756C907.531 547.9 907.111 547.972 906.679 547.972ZM906.931 546.37C907.495 546.37 907.993 546.226 908.425 545.938C908.857 545.65 909.193 545.26 909.433 544.768C909.685 544.264 909.811 543.694 909.811 543.058C909.811 542.422 909.685 541.858 909.433 541.366C909.193 540.862 908.857 540.466 908.425 540.178C907.993 539.89 907.495 539.746 906.931 539.746C906.367 539.746 905.869 539.89 905.437 540.178C905.005 540.466 904.663 540.862 904.411 541.366C904.171 541.858 904.051 542.422 904.051 543.058C904.051 543.694 904.171 544.264 904.411 544.768C904.663 545.26 905.005 545.65 905.437 545.938C905.869 546.226 906.367 546.37 906.931 546.37ZM918.556 547.972C917.584 547.972 916.72 547.768 915.964 547.36C915.22 546.94 914.632 546.37 914.2 545.65C913.78 544.93 913.57 544.102 913.57 543.166C913.57 542.422 913.69 541.744 913.93 541.132C914.17 540.52 914.5 539.992 914.92 539.548C915.352 539.092 915.862 538.744 916.45 538.504C917.05 538.252 917.698 538.126 918.394 538.126C919.006 538.126 919.576 538.246 920.104 538.486C920.632 538.714 921.088 539.032 921.472 539.44C921.868 539.848 922.168 540.334 922.372 540.898C922.588 541.45 922.69 542.056 922.678 542.716L922.66 543.508H914.938L914.524 542.032H921.058L920.788 542.338V541.906C920.752 541.51 920.62 541.156 920.392 540.844C920.164 540.532 919.876 540.286 919.528 540.106C919.18 539.926 918.802 539.836 918.394 539.836C917.746 539.836 917.2 539.962 916.756 540.214C916.312 540.454 915.976 540.814 915.748 541.294C915.52 541.762 915.406 542.344 915.406 543.04C915.406 543.7 915.544 544.276 915.82 544.768C916.096 545.248 916.486 545.62 916.99 545.884C917.494 546.148 918.076 546.28 918.736 546.28C919.204 546.28 919.636 546.202 920.032 546.046C920.44 545.89 920.878 545.608 921.346 545.2L922.282 546.514C921.994 546.802 921.64 547.054 921.22 547.27C920.812 547.486 920.374 547.66 919.906 547.792C919.45 547.912 919 547.972 918.556 547.972ZM924.692 547.792V538.342H926.564V541.312L926.384 540.592C926.516 540.136 926.738 539.722 927.05 539.35C927.374 538.978 927.74 538.684 928.148 538.468C928.568 538.252 929 538.144 929.444 538.144C929.648 538.144 929.84 538.162 930.02 538.198C930.212 538.234 930.362 538.276 930.47 538.324L929.984 540.34C929.84 540.28 929.678 540.232 929.498 540.196C929.33 540.148 929.162 540.124 928.994 540.124C928.67 540.124 928.358 540.19 928.058 540.322C927.77 540.442 927.512 540.616 927.284 540.844C927.068 541.06 926.894 541.318 926.762 541.618C926.63 541.906 926.564 542.224 926.564 542.572V547.792H924.692Z" fill="#B4B4B4"/>
<path d="M823 519.2H1093V515.2H823V519.2ZM1106 532.2V548.894H1110V532.2H1106ZM1093 561.894H823V565.894H1093V561.894ZM810 548.894V532.2H806V548.894H810ZM823 561.894C815.82 561.894 810 556.074 810 548.894H806C806 558.283 813.611 565.894 823 565.894V561.894ZM1106 548.894C1106 556.074 1100.18 561.894 1093 561.894V565.894C1102.39 565.894 1110 558.283 1110 548.894H1106ZM1093 519.2C1100.18 519.2 1106 525.02 1106 532.2H1110C1110 522.811 1102.39 515.2 1093 515.2V519.2ZM823 515.2C813.611 515.2 806 522.811 806 532.2H810C810 525.02 815.82 519.2 823 519.2V515.2Z" fill="#F5F5F5"/>
</g>
<g filter="url(#filter2_d_14_18)">
<path d="M829.764 609.078V596.478H834.894C835.578 596.478 836.196 596.652 836.748 597C837.312 597.336 837.762 597.798 838.098 598.386C838.434 598.974 838.602 599.628 838.602 600.348C838.602 601.068 838.434 601.722 838.098 602.31C837.762 602.898 837.312 603.372 836.748 603.732C836.196 604.08 835.578 604.254 834.894 604.254H831.708V609.078H829.764ZM831.708 602.382H834.858C835.182 602.382 835.476 602.292 835.74 602.112C836.004 601.92 836.214 601.674 836.37 601.374C836.538 601.062 836.622 600.72 836.622 600.348C836.622 599.976 836.538 599.64 836.37 599.34C836.214 599.04 836.004 598.8 835.74 598.62C835.476 598.44 835.182 598.35 834.858 598.35H831.708V602.382ZM840.74 609.078V595.758H842.594V609.078H840.74ZM848.682 609.258C847.902 609.258 847.188 609.042 846.54 608.61C845.904 608.178 845.394 607.59 845.01 606.846C844.626 606.102 844.434 605.262 844.434 604.326C844.434 603.378 844.626 602.538 845.01 601.806C845.406 601.062 845.934 600.48 846.594 600.06C847.266 599.64 848.016 599.43 848.844 599.43C849.336 599.43 849.786 599.502 850.194 599.646C850.602 599.79 850.956 599.994 851.256 600.258C851.568 600.51 851.82 600.804 852.012 601.14C852.216 601.476 852.342 601.836 852.39 602.22L851.976 602.076V599.628H853.848V609.078H851.976V606.828L852.408 606.702C852.336 607.026 852.186 607.344 851.958 607.656C851.742 607.956 851.46 608.226 851.112 608.466C850.776 608.706 850.398 608.898 849.978 609.042C849.57 609.186 849.138 609.258 848.682 609.258ZM849.168 607.548C849.732 607.548 850.23 607.41 850.662 607.134C851.094 606.858 851.43 606.48 851.67 606C851.922 605.508 852.048 604.95 852.048 604.326C852.048 603.714 851.922 603.168 851.67 602.688C851.43 602.208 851.094 601.83 850.662 601.554C850.23 601.278 849.732 601.14 849.168 601.14C848.616 601.14 848.124 601.278 847.692 601.554C847.272 601.83 846.936 602.208 846.684 602.688C846.444 603.168 846.324 603.714 846.324 604.326C846.324 604.95 846.444 605.508 846.684 606C846.936 606.48 847.272 606.858 847.692 607.134C848.124 607.41 848.616 607.548 849.168 607.548ZM860.451 609.258C859.575 609.258 858.789 609.042 858.093 608.61C857.409 608.178 856.863 607.59 856.455 606.846C856.059 606.102 855.861 605.268 855.861 604.344C855.861 603.42 856.059 602.586 856.455 601.842C856.863 601.098 857.409 600.51 858.093 600.078C858.789 599.646 859.575 599.43 860.451 599.43C861.291 599.43 862.053 599.604 862.737 599.952C863.433 600.288 863.961 600.75 864.321 601.338L863.295 602.598C863.103 602.322 862.857 602.07 862.557 601.842C862.257 601.614 861.939 601.434 861.603 601.302C861.267 601.17 860.943 601.104 860.631 601.104C860.055 601.104 859.539 601.248 859.083 601.536C858.639 601.812 858.285 602.196 858.021 602.688C857.757 603.18 857.625 603.732 857.625 604.344C857.625 604.956 857.763 605.508 858.039 606C858.315 606.48 858.681 606.864 859.137 607.152C859.593 607.44 860.097 607.584 860.649 607.584C860.973 607.584 861.285 607.53 861.585 607.422C861.897 607.314 862.197 607.152 862.485 606.936C862.773 606.72 863.043 606.456 863.295 606.144L864.321 607.404C863.937 607.944 863.385 608.388 862.665 608.736C861.957 609.084 861.219 609.258 860.451 609.258ZM870.479 609.258C869.507 609.258 868.643 609.054 867.887 608.646C867.143 608.226 866.555 607.656 866.123 606.936C865.703 606.216 865.493 605.388 865.493 604.452C865.493 603.708 865.613 603.03 865.853 602.418C866.093 601.806 866.423 601.278 866.843 600.834C867.275 600.378 867.785 600.03 868.373 599.79C868.973 599.538 869.621 599.412 870.317 599.412C870.929 599.412 871.499 599.532 872.027 599.772C872.555 600 873.011 600.318 873.395 600.726C873.791 601.134 874.091 601.62 874.295 602.184C874.511 602.736 874.613 603.342 874.601 604.002L874.583 604.794H866.861L866.447 603.318H872.981L872.711 603.624V603.192C872.675 602.796 872.543 602.442 872.315 602.13C872.087 601.818 871.799 601.572 871.451 601.392C871.103 601.212 870.725 601.122 870.317 601.122C869.669 601.122 869.123 601.248 868.679 601.5C868.235 601.74 867.899 602.1 867.671 602.58C867.443 603.048 867.329 603.63 867.329 604.326C867.329 604.986 867.467 605.562 867.743 606.054C868.019 606.534 868.409 606.906 868.913 607.17C869.417 607.434 869.999 607.566 870.659 607.566C871.127 607.566 871.559 607.488 871.955 607.332C872.363 607.176 872.801 606.894 873.269 606.486L874.205 607.8C873.917 608.088 873.563 608.34 873.143 608.556C872.735 608.772 872.297 608.946 871.829 609.078C871.373 609.198 870.923 609.258 870.479 609.258ZM876.616 609.078V595.758H878.47V601.572L878.146 601.788C878.266 601.368 878.5 600.984 878.848 600.636C879.196 600.276 879.61 599.988 880.09 599.772C880.57 599.544 881.062 599.43 881.566 599.43C882.286 599.43 882.886 599.574 883.366 599.862C883.846 600.138 884.206 600.564 884.446 601.14C884.686 601.716 884.806 602.442 884.806 603.318V609.078H882.952V603.444C882.952 602.904 882.88 602.46 882.736 602.112C882.592 601.752 882.37 601.494 882.07 601.338C881.77 601.17 881.398 601.098 880.954 601.122C880.594 601.122 880.264 601.182 879.964 601.302C879.664 601.41 879.4 601.566 879.172 601.77C878.956 601.974 878.782 602.214 878.65 602.49C878.53 602.754 878.47 603.042 878.47 603.354V609.078H877.552C877.396 609.078 877.24 609.078 877.084 609.078C876.928 609.078 876.772 609.078 876.616 609.078ZM891.569 609.258C890.645 609.258 889.817 609.048 889.085 608.628C888.365 608.196 887.795 607.614 887.375 606.882C886.955 606.138 886.745 605.292 886.745 604.344C886.745 603.396 886.955 602.556 887.375 601.824C887.795 601.08 888.365 600.498 889.085 600.078C889.817 599.646 890.645 599.43 891.569 599.43C892.481 599.43 893.297 599.646 894.017 600.078C894.749 600.498 895.325 601.08 895.745 601.824C896.165 602.556 896.375 603.396 896.375 604.344C896.375 605.292 896.165 606.138 895.745 606.882C895.325 607.614 894.749 608.196 894.017 608.628C893.297 609.048 892.481 609.258 891.569 609.258ZM891.569 607.566C892.133 607.566 892.637 607.428 893.081 607.152C893.525 606.864 893.873 606.48 894.125 606C894.377 605.508 894.497 604.956 894.485 604.344C894.497 603.72 894.377 603.168 894.125 602.688C893.873 602.196 893.525 601.812 893.081 601.536C892.637 601.26 892.133 601.122 891.569 601.122C891.005 601.122 890.495 601.266 890.039 601.554C889.595 601.83 889.247 602.214 888.995 602.706C888.743 603.186 888.623 603.732 888.635 604.344C888.623 604.956 888.743 605.508 888.995 606C889.247 606.48 889.595 606.864 890.039 607.152C890.495 607.428 891.005 607.566 891.569 607.566ZM898.432 609.078V595.758H900.286V609.078H898.432ZM906.679 609.258C905.815 609.258 905.041 609.048 904.357 608.628C903.685 608.196 903.151 607.614 902.755 606.882C902.359 606.138 902.161 605.292 902.161 604.344C902.161 603.396 902.353 602.556 902.737 601.824C903.133 601.08 903.667 600.498 904.339 600.078C905.011 599.646 905.773 599.43 906.625 599.43C907.093 599.43 907.543 599.508 907.975 599.664C908.419 599.808 908.815 600.012 909.163 600.276C909.511 600.528 909.781 600.81 909.973 601.122C910.177 601.422 910.279 601.728 910.279 602.04L909.739 602.076V595.758H911.593V609.078H909.739V606.828H910.099C910.099 607.116 910.003 607.404 909.811 607.692C909.619 607.968 909.361 608.226 909.037 608.466C908.725 608.706 908.359 608.898 907.939 609.042C907.531 609.186 907.111 609.258 906.679 609.258ZM906.931 607.656C907.495 607.656 907.993 607.512 908.425 607.224C908.857 606.936 909.193 606.546 909.433 606.054C909.685 605.55 909.811 604.98 909.811 604.344C909.811 603.708 909.685 603.144 909.433 602.652C909.193 602.148 908.857 601.752 908.425 601.464C907.993 601.176 907.495 601.032 906.931 601.032C906.367 601.032 905.869 601.176 905.437 601.464C905.005 601.752 904.663 602.148 904.411 602.652C904.171 603.144 904.051 603.708 904.051 604.344C904.051 604.98 904.171 605.55 904.411 606.054C904.663 606.546 905.005 606.936 905.437 607.224C905.869 607.512 906.367 607.656 906.931 607.656ZM918.556 609.258C917.584 609.258 916.72 609.054 915.964 608.646C915.22 608.226 914.632 607.656 914.2 606.936C913.78 606.216 913.57 605.388 913.57 604.452C913.57 603.708 913.69 603.03 913.93 602.418C914.17 601.806 914.5 601.278 914.92 600.834C915.352 600.378 915.862 600.03 916.45 599.79C917.05 599.538 917.698 599.412 918.394 599.412C919.006 599.412 919.576 599.532 920.104 599.772C920.632 600 921.088 600.318 921.472 600.726C921.868 601.134 922.168 601.62 922.372 602.184C922.588 602.736 922.69 603.342 922.678 604.002L922.66 604.794H914.938L914.524 603.318H921.058L920.788 603.624V603.192C920.752 602.796 920.62 602.442 920.392 602.13C920.164 601.818 919.876 601.572 919.528 601.392C919.18 601.212 918.802 601.122 918.394 601.122C917.746 601.122 917.2 601.248 916.756 601.5C916.312 601.74 915.976 602.1 915.748 602.58C915.52 603.048 915.406 603.63 915.406 604.326C915.406 604.986 915.544 605.562 915.82 606.054C916.096 606.534 916.486 606.906 916.99 607.17C917.494 607.434 918.076 607.566 918.736 607.566C919.204 607.566 919.636 607.488 920.032 607.332C920.44 607.176 920.878 606.894 921.346 606.486L922.282 607.8C921.994 608.088 921.64 608.34 921.22 608.556C920.812 608.772 920.374 608.946 919.906 609.078C919.45 609.198 919 609.258 918.556 609.258ZM924.692 609.078V599.628H926.564V602.598L926.384 601.878C926.516 601.422 926.738 601.008 927.05 600.636C927.374 600.264 927.74 599.97 928.148 599.754C928.568 599.538 929 599.43 929.444 599.43C929.648 599.43 929.84 599.448 930.02 599.484C930.212 599.52 930.362 599.562 930.47 599.61L929.984 601.626C929.84 601.566 929.678 601.518 929.498 601.482C929.33 601.434 929.162 601.41 928.994 601.41C928.67 601.41 928.358 601.476 928.058 601.608C927.77 601.728 927.512 601.902 927.284 602.13C927.068 602.346 926.894 602.604 926.762 602.904C926.63 603.192 926.564 603.51 926.564 603.858V609.078H924.692Z" fill="#B4B4B4"/>
<path d="M823 580.486H1093V576.486H823V580.486ZM1106 593.486V610.181H1110V593.486H1106ZM1093 623.181H823V627.181H1093V623.181ZM810 610.181V593.486H806V610.181H810ZM823 623.181C815.82 623.181 810 617.361 810 610.181H806C806 619.57 813.611 627.181 823 627.181V623.181ZM1106 610.181C1106 617.361 1100.18 623.181 1093 623.181V627.181C1102.39 627.181 1110 619.57 1110 610.181H1106ZM1093 580.486C1100.18 580.486 1106 586.307 1106 593.486H1110C1110 584.098 1102.39 576.486 1093 576.486V580.486ZM823 576.486C813.611 576.486 806 584.098 806 593.486H810C810 586.307 815.82 580.486 823 580.486V576.486Z" fill="#F5F5F5"/>
</g>
<path d="M895.31 379.346C892.157 379.346 889.727 378.454 888.02 376.671C886.312 374.862 885.458 372.213 885.458 368.726C885.458 365.291 886.286 362.668 887.941 360.859C889.596 359.024 891.921 358.106 894.916 358.106C896.308 358.106 897.635 358.198 898.896 358.381C899.395 358.46 899.802 358.696 900.118 359.089C900.459 359.482 900.63 359.941 900.63 360.466C900.63 360.912 900.446 361.266 900.078 361.528C899.737 361.79 899.343 361.869 898.896 361.764C897.609 361.475 896.387 361.331 895.231 361.331C893.418 361.331 892.052 361.921 891.133 363.101C890.24 364.281 889.793 366.156 889.793 368.726C889.793 371.348 890.266 373.236 891.212 374.39C892.184 375.544 893.655 376.12 895.625 376.12C896.86 376.12 898.042 375.95 899.172 375.609C899.592 375.478 899.973 375.544 900.315 375.806C900.656 376.042 900.827 376.37 900.827 376.789C900.827 377.314 900.656 377.786 900.315 378.205C899.973 378.625 899.553 378.887 899.054 378.992C897.793 379.228 896.545 379.346 895.31 379.346Z" fill="#333333"/>
<path d="M911.354 378.323C910.934 378.743 910.435 378.952 909.857 378.952C909.279 378.952 908.767 378.743 908.32 378.323C907.9 377.904 907.689 377.392 907.689 376.789V351.616C907.689 351.013 907.9 350.501 908.32 350.082C908.767 349.662 909.279 349.452 909.857 349.452C910.435 349.452 910.934 349.662 911.354 350.082C911.801 350.501 912.024 351.013 912.024 351.616V376.789C912.024 377.392 911.801 377.904 911.354 378.323Z" fill="#333333"/>
<path d="M926.968 361.174C923.973 361.174 922.292 362.944 921.924 366.484C921.872 366.72 921.977 366.838 922.239 366.838H931.067C931.277 366.838 931.382 366.72 931.382 366.484C931.224 362.944 929.753 361.174 926.968 361.174ZM927.953 379.346C924.67 379.346 922.134 378.454 920.348 376.671C918.588 374.888 917.708 372.24 917.708 368.726C917.708 365.212 918.496 362.564 920.072 360.78C921.675 358.997 923.973 358.106 926.968 358.106C932.433 358.106 935.257 361.305 935.441 367.703C935.467 368.332 935.244 368.857 934.771 369.276C934.298 369.696 933.746 369.906 933.116 369.906H922.2C921.99 369.906 921.885 370.011 921.885 370.22C922.2 374.259 924.354 376.278 928.348 376.278C929.74 376.278 931.106 376.055 932.446 375.609C932.84 375.478 933.208 375.53 933.549 375.766C933.891 376.002 934.062 376.33 934.062 376.75C934.062 377.248 933.904 377.694 933.589 378.087C933.273 378.48 932.866 378.743 932.367 378.874C930.922 379.188 929.451 379.346 927.953 379.346Z" fill="#333333"/>
<path d="M969.685 361.174C966.69 361.174 965.009 362.944 964.641 366.484C964.589 366.72 964.694 366.838 964.956 366.838H973.784C973.994 366.838 974.099 366.72 974.099 366.484C973.941 362.944 972.47 361.174 969.685 361.174ZM970.67 379.346C967.387 379.346 964.851 378.454 963.065 376.671C961.305 374.888 960.425 372.24 960.425 368.726C960.425 365.212 961.213 362.564 962.789 360.78C964.392 358.997 966.69 358.106 969.685 358.106C975.15 358.106 977.974 361.305 978.158 367.703C978.184 368.332 977.961 368.857 977.488 369.276C977.015 369.696 976.463 369.906 975.833 369.906H964.917C964.707 369.906 964.602 370.011 964.602 370.22C964.917 374.259 967.071 376.278 971.065 376.278C972.457 376.278 973.823 376.055 975.163 375.609C975.557 375.478 975.925 375.53 976.266 375.766C976.608 376.002 976.779 376.33 976.779 376.75C976.779 377.248 976.621 377.694 976.306 378.087C975.991 378.48 975.583 378.743 975.084 378.874C973.639 379.188 972.168 379.346 970.67 379.346Z" fill="#333333"/>
<path d="M986.366 378.323C985.946 378.743 985.434 378.952 984.829 378.952C984.225 378.952 983.713 378.743 983.293 378.323C982.872 377.904 982.662 377.392 982.662 376.789V360.544C982.662 359.968 982.859 359.482 983.253 359.089C983.647 358.696 984.133 358.499 984.711 358.499C985.289 358.499 985.775 358.696 986.169 359.089C986.59 359.482 986.8 359.968 986.8 360.544V362.393C986.8 362.419 986.813 362.432 986.839 362.432C986.892 362.432 986.918 362.419 986.918 362.393C987.706 361.318 988.757 360.44 990.071 359.758C991.384 359.05 992.816 358.643 994.366 358.538C994.839 358.512 995.233 358.656 995.548 358.971C995.89 359.286 996.061 359.679 996.061 360.151C996.061 360.623 995.89 361.03 995.548 361.37C995.233 361.685 994.839 361.856 994.366 361.882C991.844 361.987 989.979 362.642 988.77 363.848C987.588 365.028 986.997 366.785 986.997 369.119V376.789C986.997 377.392 986.787 377.904 986.366 378.323Z" fill="#333333"/>
<path d="M1005.99 378.323C1005.57 378.743 1005.07 378.952 1004.49 378.952C1003.91 378.952 1003.4 378.743 1002.95 378.323C1002.53 377.904 1002.32 377.392 1002.32 376.789V351.616C1002.32 351.013 1002.53 350.501 1002.95 350.082C1003.4 349.662 1003.91 349.452 1004.49 349.452C1005.07 349.452 1005.57 349.662 1005.99 350.082C1006.43 350.501 1006.66 351.013 1006.66 351.616V376.789C1006.66 377.392 1006.43 377.904 1005.99 378.323Z" fill="#333333"/>
<path d="M1018.96 378.638L1012.5 360.544C1012.31 360.046 1012.38 359.587 1012.69 359.168C1013.01 358.722 1013.43 358.499 1013.95 358.499C1014.61 358.499 1015.2 358.696 1015.73 359.089C1016.25 359.456 1016.61 359.941 1016.79 360.544L1021.21 374.193C1021.21 374.219 1021.22 374.232 1021.25 374.232C1021.27 374.232 1021.28 374.219 1021.28 374.193L1026.21 360.466C1026.45 359.863 1026.81 359.391 1027.31 359.05C1027.81 358.683 1028.38 358.499 1029.01 358.499C1029.51 358.499 1029.89 358.709 1030.15 359.128C1030.44 359.522 1030.49 359.954 1030.31 360.426L1020.26 385.678C1020.02 386.255 1019.64 386.714 1019.12 387.055C1018.59 387.422 1018.01 387.606 1017.38 387.606C1016.91 387.606 1016.53 387.396 1016.24 386.976C1015.98 386.557 1015.94 386.124 1016.12 385.678L1018.96 379.267C1019.01 379.162 1019.04 379.057 1019.04 378.952C1019.04 378.848 1019.01 378.743 1018.96 378.638Z" fill="#333333"/>
<path fill-rule="evenodd" clip-rule="evenodd" d="M962.159 346.924L1036 346.924C1036.93 346.924 1037.69 346.169 1037.69 345.238C1037.69 344.307 1036.93 343.552 1036 343.552L960.051 343.552L959.586 344.493C958.197 347.308 956.09 351.957 955.228 354.94C955.078 355.459 954.928 355.978 954.779 356.497C952.926 362.912 951.087 369.282 948.93 375.521C948.926 375.509 948.921 375.497 948.917 375.484C948.802 375.181 948.68 374.855 948.54 374.494C947.637 372.169 943.574 360.687 942.256 356.96C942.08 356.463 941.953 356.103 941.888 355.922C941.577 355.045 940.612 354.585 939.732 354.896C938.853 355.207 938.393 356.17 938.704 357.048C938.765 357.22 938.888 357.566 939.058 358.048C940.361 361.729 944.465 373.328 945.39 375.712C945.5 375.994 945.614 376.296 945.727 376.598C945.898 377.05 946.067 377.5 946.219 377.876C946.464 378.478 946.785 379.216 947.211 379.736C947.424 379.996 947.836 380.421 948.483 380.579C949.252 380.767 949.913 380.486 950.347 380.127C950.728 379.812 950.99 379.403 951.176 379.052C951.375 378.678 951.559 378.234 951.736 377.732C954.092 371.049 956.064 364.219 958.019 357.449C958.17 356.924 958.322 356.399 958.473 355.875C959.164 353.487 960.825 349.703 962.159 346.924Z" fill="#9AEC80"/>
<path d="M927.352 458V441.2H929.944V455.504H937.816V458H927.352ZM946.29 458.24C945.058 458.24 943.954 457.96 942.978 457.4C942.018 456.824 941.258 456.048 940.698 455.072C940.138 454.08 939.858 452.952 939.858 451.688C939.858 450.424 940.138 449.304 940.698 448.328C941.258 447.336 942.018 446.56 942.978 446C943.954 445.424 945.058 445.136 946.29 445.136C947.506 445.136 948.594 445.424 949.554 446C950.53 446.56 951.298 447.336 951.858 448.328C952.418 449.304 952.698 450.424 952.698 451.688C952.698 452.952 952.418 454.08 951.858 455.072C951.298 456.048 950.53 456.824 949.554 457.4C948.594 457.96 947.506 458.24 946.29 458.24ZM946.29 455.984C947.042 455.984 947.714 455.8 948.306 455.432C948.898 455.048 949.362 454.536 949.698 453.896C950.034 453.24 950.194 452.504 950.178 451.688C950.194 450.856 950.034 450.12 949.698 449.48C949.362 448.824 948.898 448.312 948.306 447.944C947.714 447.576 947.042 447.392 946.29 447.392C945.538 447.392 944.858 447.584 944.25 447.968C943.658 448.336 943.194 448.848 942.858 449.504C942.522 450.144 942.362 450.872 942.378 451.688C942.362 452.504 942.522 453.24 942.858 453.896C943.194 454.536 943.658 455.048 944.25 455.432C944.858 455.8 945.538 455.984 946.29 455.984ZM961.032 463.52C960.136 463.52 959.24 463.376 958.344 463.088C957.464 462.816 956.752 462.456 956.208 462.008L957.12 460.088C957.44 460.328 957.816 460.536 958.248 460.712C958.68 460.904 959.136 461.048 959.616 461.144C960.096 461.256 960.568 461.312 961.032 461.312C961.912 461.312 962.648 461.168 963.24 460.88C963.832 460.592 964.28 460.168 964.584 459.608C964.888 459.048 965.04 458.352 965.04 457.52V455.096L965.304 455.264C965.224 455.76 964.96 456.24 964.512 456.704C964.08 457.152 963.536 457.52 962.88 457.808C962.224 458.096 961.552 458.24 960.864 458.24C959.664 458.24 958.592 457.96 957.648 457.4C956.72 456.824 955.984 456.048 955.44 455.072C954.896 454.08 954.624 452.952 954.624 451.688C954.624 450.424 954.888 449.304 955.416 448.328C955.96 447.336 956.696 446.56 957.624 446C958.568 445.424 959.624 445.136 960.792 445.136C961.272 445.136 961.736 445.2 962.184 445.328C962.632 445.44 963.048 445.608 963.432 445.832C963.816 446.04 964.16 446.272 964.464 446.528C964.768 446.784 965.016 447.056 965.208 447.344C965.4 447.632 965.52 447.904 965.568 448.16L965.04 448.352V445.4H967.512V457.232C967.512 458.24 967.36 459.128 967.056 459.896C966.768 460.68 966.344 461.336 965.784 461.864C965.224 462.408 964.544 462.816 963.744 463.088C962.944 463.376 962.04 463.52 961.032 463.52ZM961.128 455.96C961.912 455.96 962.608 455.776 963.216 455.408C963.824 455.04 964.296 454.536 964.632 453.896C964.968 453.256 965.136 452.52 965.136 451.688C965.136 450.856 964.96 450.12 964.608 449.48C964.272 448.824 963.8 448.312 963.192 447.944C962.6 447.576 961.912 447.392 961.128 447.392C960.36 447.392 959.672 447.584 959.064 447.968C958.472 448.336 958 448.848 957.648 449.504C957.312 450.144 957.144 450.872 957.144 451.688C957.144 452.504 957.312 453.24 957.648 453.896C958 454.536 958.472 455.04 959.064 455.408C959.672 455.776 960.36 455.96 961.128 455.96ZM978.113 458V445.4H980.585V458H978.113ZM979.313 442.616C978.785 442.616 978.377 442.48 978.089 442.208C977.801 441.936 977.657 441.552 977.657 441.056C977.657 440.592 977.801 440.216 978.089 439.928C978.393 439.64 978.801 439.496 979.313 439.496C979.841 439.496 980.249 439.632 980.537 439.904C980.825 440.176 980.969 440.56 980.969 441.056C980.969 441.52 980.817 441.896 980.513 442.184C980.225 442.472 979.825 442.616 979.313 442.616ZM984.384 458V445.4H986.856V447.992L986.424 448.28C986.584 447.72 986.896 447.208 987.36 446.744C987.824 446.264 988.376 445.88 989.016 445.592C989.656 445.288 990.312 445.136 990.984 445.136C991.944 445.136 992.744 445.328 993.384 445.712C994.024 446.08 994.504 446.648 994.824 447.416C995.144 448.184 995.304 449.152 995.304 450.32V458H992.832V450.488C992.832 449.768 992.736 449.176 992.544 448.712C992.352 448.232 992.056 447.888 991.656 447.68C991.256 447.456 990.76 447.36 990.168 447.392C989.688 447.392 989.248 447.472 988.848 447.632C988.448 447.776 988.096 447.984 987.792 448.256C987.504 448.528 987.272 448.848 987.096 449.216C986.936 449.568 986.856 449.952 986.856 450.368V458H985.632C985.424 458 985.216 458 985.008 458C984.8 458 984.592 458 984.384 458Z" fill="#333333"/>
<g filter="url(#filter3_d_14_18)">
<path d="M835 784C835 775.716 841.716 769 850 769H1072C1080.28 769 1087 775.716 1087 784V807C1087 815.284 1080.28 822 1072 822H850C841.716 822 835 815.284 835 807V784Z" fill="#989FC9"/>
<path d="M926.264 802V789.4H931.628C932.348 789.4 933.008 789.58 933.608 789.94C934.22 790.288 934.706 790.768 935.066 791.38C935.426 791.98 935.606 792.658 935.606 793.414C935.606 794.098 935.426 794.734 935.066 795.322C934.706 795.91 934.226 796.384 933.626 796.744C933.026 797.092 932.36 797.266 931.628 797.266H928.208V802H926.264ZM933.752 802L930.548 796.312L932.546 795.862L936.11 802.018L933.752 802ZM928.208 795.394H931.808C932.156 795.394 932.468 795.31 932.744 795.142C933.02 794.962 933.236 794.722 933.392 794.422C933.548 794.11 933.626 793.768 933.626 793.396C933.626 792.976 933.524 792.61 933.32 792.298C933.128 791.974 932.852 791.722 932.492 791.542C932.144 791.362 931.748 791.272 931.304 791.272H928.208V795.394ZM942.37 802.18C941.398 802.18 940.534 801.976 939.778 801.568C939.034 801.148 938.446 800.578 938.014 799.858C937.594 799.138 937.384 798.31 937.384 797.374C937.384 796.63 937.504 795.952 937.744 795.34C937.984 794.728 938.314 794.2 938.734 793.756C939.166 793.3 939.676 792.952 940.264 792.712C940.864 792.46 941.512 792.334 942.208 792.334C942.82 792.334 943.39 792.454 943.918 792.694C944.446 792.922 944.902 793.24 945.286 793.648C945.682 794.056 945.982 794.542 946.186 795.106C946.402 795.658 946.504 796.264 946.492 796.924L946.474 797.716H938.752L938.338 796.24H944.872L944.602 796.546V796.114C944.566 795.718 944.434 795.364 944.206 795.052C943.978 794.74 943.69 794.494 943.342 794.314C942.994 794.134 942.616 794.044 942.208 794.044C941.56 794.044 941.014 794.17 940.57 794.422C940.126 794.662 939.79 795.022 939.562 795.502C939.334 795.97 939.22 796.552 939.22 797.248C939.22 797.908 939.358 798.484 939.634 798.976C939.91 799.456 940.3 799.828 940.804 800.092C941.308 800.356 941.89 800.488 942.55 800.488C943.018 800.488 943.45 800.41 943.846 800.254C944.254 800.098 944.692 799.816 945.16 799.408L946.096 800.722C945.808 801.01 945.454 801.262 945.034 801.478C944.626 801.694 944.188 801.868 943.72 802C943.264 802.12 942.814 802.18 942.37 802.18ZM952.649 806.14C951.977 806.14 951.305 806.032 950.633 805.816C949.973 805.612 949.439 805.342 949.031 805.006L949.715 803.566C949.955 803.746 950.237 803.902 950.561 804.034C950.885 804.178 951.227 804.286 951.587 804.358C951.947 804.442 952.301 804.484 952.649 804.484C953.309 804.484 953.861 804.376 954.305 804.16C954.749 803.944 955.085 803.626 955.313 803.206C955.541 802.786 955.655 802.264 955.655 801.64V799.822L955.853 799.948C955.793 800.32 955.595 800.68 955.259 801.028C954.935 801.364 954.527 801.64 954.035 801.856C953.543 802.072 953.039 802.18 952.523 802.18C951.623 802.18 950.819 801.97 950.111 801.55C949.415 801.118 948.863 800.536 948.455 799.804C948.047 799.06 947.843 798.214 947.843 797.266C947.843 796.318 948.041 795.478 948.437 794.746C948.845 794.002 949.397 793.42 950.093 793C950.801 792.568 951.593 792.352 952.469 792.352C952.829 792.352 953.177 792.4 953.513 792.496C953.849 792.58 954.161 792.706 954.449 792.874C954.737 793.03 954.995 793.204 955.223 793.396C955.451 793.588 955.637 793.792 955.781 794.008C955.925 794.224 956.015 794.428 956.051 794.62L955.655 794.764V792.55H957.509V801.424C957.509 802.18 957.395 802.846 957.167 803.422C956.951 804.01 956.633 804.502 956.213 804.898C955.793 805.306 955.283 805.612 954.683 805.816C954.083 806.032 953.405 806.14 952.649 806.14ZM952.721 800.47C953.309 800.47 953.831 800.332 954.287 800.056C954.743 799.78 955.097 799.402 955.349 798.922C955.601 798.442 955.727 797.89 955.727 797.266C955.727 796.642 955.595 796.09 955.331 795.61C955.079 795.118 954.725 794.734 954.269 794.458C953.825 794.182 953.309 794.044 952.721 794.044C952.145 794.044 951.629 794.188 951.173 794.476C950.729 794.752 950.375 795.136 950.111 795.628C949.859 796.108 949.733 796.654 949.733 797.266C949.733 797.878 949.859 798.43 950.111 798.922C950.375 799.402 950.729 799.78 951.173 800.056C951.629 800.332 952.145 800.47 952.721 800.47ZM960.415 802V792.55H962.269V802H960.415ZM961.315 790.462C960.919 790.462 960.613 790.36 960.397 790.156C960.181 789.952 960.073 789.664 960.073 789.292C960.073 788.944 960.181 788.662 960.397 788.446C960.625 788.23 960.931 788.122 961.315 788.122C961.711 788.122 962.017 788.224 962.233 788.428C962.449 788.632 962.557 788.92 962.557 789.292C962.557 789.64 962.443 789.922 962.215 790.138C961.999 790.354 961.699 790.462 961.315 790.462ZM968.268 802.18C967.476 802.18 966.762 802.042 966.126 801.766C965.49 801.49 964.962 801.082 964.542 800.542L965.802 799.462C966.162 799.882 966.552 800.188 966.972 800.38C967.404 800.56 967.89 800.65 968.43 800.65C968.646 800.65 968.844 800.626 969.024 800.578C969.216 800.518 969.378 800.434 969.51 800.326C969.654 800.218 969.762 800.092 969.834 799.948C969.906 799.792 969.942 799.624 969.942 799.444C969.942 799.132 969.828 798.88 969.6 798.688C969.48 798.604 969.288 798.514 969.024 798.418C968.772 798.31 968.442 798.202 968.034 798.094C967.338 797.914 966.768 797.71 966.324 797.482C965.88 797.254 965.538 796.996 965.298 796.708C965.118 796.48 964.986 796.234 964.902 795.97C964.818 795.694 964.776 795.394 964.776 795.07C964.776 794.674 964.86 794.314 965.028 793.99C965.208 793.654 965.448 793.366 965.748 793.126C966.06 792.874 966.42 792.682 966.828 792.55C967.248 792.418 967.692 792.352 968.16 792.352C968.604 792.352 969.042 792.412 969.474 792.532C969.918 792.652 970.326 792.826 970.698 793.054C971.07 793.282 971.382 793.552 971.634 793.864L970.572 795.034C970.344 794.806 970.092 794.608 969.816 794.44C969.552 794.26 969.282 794.122 969.006 794.026C968.73 793.93 968.478 793.882 968.25 793.882C967.998 793.882 967.77 793.906 967.566 793.954C967.362 794.002 967.188 794.074 967.044 794.17C966.912 794.266 966.81 794.386 966.738 794.53C966.666 794.674 966.63 794.836 966.63 795.016C966.642 795.172 966.678 795.322 966.738 795.466C966.81 795.598 966.906 795.712 967.026 795.808C967.158 795.904 967.356 796.006 967.62 796.114C967.884 796.222 968.22 796.324 968.628 796.42C969.228 796.576 969.72 796.75 970.104 796.942C970.5 797.122 970.812 797.332 971.04 797.572C971.28 797.8 971.448 798.064 971.544 798.364C971.64 798.664 971.688 799 971.688 799.372C971.688 799.912 971.532 800.398 971.22 800.83C970.92 801.25 970.512 801.58 969.996 801.82C969.48 802.06 968.904 802.18 968.268 802.18ZM974.902 802V790.138H976.756V802H974.902ZM972.94 794.35V792.55H978.952V794.35H972.94ZM984.962 802.18C983.99 802.18 983.126 801.976 982.37 801.568C981.626 801.148 981.038 800.578 980.606 799.858C980.186 799.138 979.976 798.31 979.976 797.374C979.976 796.63 980.096 795.952 980.336 795.34C980.576 794.728 980.906 794.2 981.326 793.756C981.758 793.3 982.268 792.952 982.856 792.712C983.456 792.46 984.104 792.334 984.8 792.334C985.412 792.334 985.982 792.454 986.51 792.694C987.038 792.922 987.494 793.24 987.878 793.648C988.274 794.056 988.574 794.542 988.778 795.106C988.994 795.658 989.096 796.264 989.084 796.924L989.066 797.716H981.344L980.93 796.24H987.464L987.194 796.546V796.114C987.158 795.718 987.026 795.364 986.798 795.052C986.57 794.74 986.282 794.494 985.934 794.314C985.586 794.134 985.208 794.044 984.8 794.044C984.152 794.044 983.606 794.17 983.162 794.422C982.718 794.662 982.382 795.022 982.154 795.502C981.926 795.97 981.812 796.552 981.812 797.248C981.812 797.908 981.95 798.484 982.226 798.976C982.502 799.456 982.892 799.828 983.396 800.092C983.9 800.356 984.482 800.488 985.142 800.488C985.61 800.488 986.042 800.41 986.438 800.254C986.846 800.098 987.284 799.816 987.752 799.408L988.688 800.722C988.4 801.01 988.046 801.262 987.626 801.478C987.218 801.694 986.78 801.868 986.312 802C985.856 802.12 985.406 802.18 984.962 802.18ZM991.099 802V792.55H992.971V795.52L992.791 794.8C992.923 794.344 993.145 793.93 993.457 793.558C993.781 793.186 994.147 792.892 994.555 792.676C994.975 792.46 995.407 792.352 995.851 792.352C996.055 792.352 996.247 792.37 996.427 792.406C996.619 792.442 996.769 792.484 996.877 792.532L996.391 794.548C996.247 794.488 996.085 794.44 995.905 794.404C995.737 794.356 995.569 794.332 995.401 794.332C995.077 794.332 994.765 794.398 994.465 794.53C994.177 794.65 993.919 794.824 993.691 795.052C993.475 795.268 993.301 795.526 993.169 795.826C993.037 796.114 992.971 796.432 992.971 796.78V802H991.099Z" fill="white"/>
</g>
<g filter="url(#filter4_d_14_18)">
<path d="M835 716C835 707.716 841.716 701 850 701H1072C1080.28 701 1087 707.716 1087 716V739C1087 747.284 1080.28 754 1072 754H850C841.716 754 835 747.284 835 739V716Z" fill="#989FC9"/>
<path d="M935.764 734V721.4H937.708V732.128H943.612V734H935.764ZM949.968 734.18C949.044 734.18 948.216 733.97 947.484 733.55C946.764 733.118 946.194 732.536 945.774 731.804C945.354 731.06 945.144 730.214 945.144 729.266C945.144 728.318 945.354 727.478 945.774 726.746C946.194 726.002 946.764 725.42 947.484 725C948.216 724.568 949.044 724.352 949.968 724.352C950.88 724.352 951.696 724.568 952.416 725C953.148 725.42 953.724 726.002 954.144 726.746C954.564 727.478 954.774 728.318 954.774 729.266C954.774 730.214 954.564 731.06 954.144 731.804C953.724 732.536 953.148 733.118 952.416 733.55C951.696 733.97 950.88 734.18 949.968 734.18ZM949.968 732.488C950.532 732.488 951.036 732.35 951.48 732.074C951.924 731.786 952.272 731.402 952.524 730.922C952.776 730.43 952.896 729.878 952.884 729.266C952.896 728.642 952.776 728.09 952.524 727.61C952.272 727.118 951.924 726.734 951.48 726.458C951.036 726.182 950.532 726.044 949.968 726.044C949.404 726.044 948.894 726.188 948.438 726.476C947.994 726.752 947.646 727.136 947.394 727.628C947.142 728.108 947.022 728.654 947.034 729.266C947.022 729.878 947.142 730.43 947.394 730.922C947.646 731.402 947.994 731.786 948.438 732.074C948.894 732.35 949.404 732.488 949.968 732.488ZM961.024 738.14C960.352 738.14 959.68 738.032 959.008 737.816C958.348 737.612 957.814 737.342 957.406 737.006L958.09 735.566C958.33 735.746 958.612 735.902 958.936 736.034C959.26 736.178 959.602 736.286 959.962 736.358C960.322 736.442 960.676 736.484 961.024 736.484C961.684 736.484 962.236 736.376 962.68 736.16C963.124 735.944 963.46 735.626 963.688 735.206C963.916 734.786 964.03 734.264 964.03 733.64V731.822L964.228 731.948C964.168 732.32 963.97 732.68 963.634 733.028C963.31 733.364 962.902 733.64 962.41 733.856C961.918 734.072 961.414 734.18 960.898 734.18C959.998 734.18 959.194 733.97 958.486 733.55C957.79 733.118 957.238 732.536 956.83 731.804C956.422 731.06 956.218 730.214 956.218 729.266C956.218 728.318 956.416 727.478 956.812 726.746C957.22 726.002 957.772 725.42 958.468 725C959.176 724.568 959.968 724.352 960.844 724.352C961.204 724.352 961.552 724.4 961.888 724.496C962.224 724.58 962.536 724.706 962.824 724.874C963.112 725.03 963.37 725.204 963.598 725.396C963.826 725.588 964.012 725.792 964.156 726.008C964.3 726.224 964.39 726.428 964.426 726.62L964.03 726.764V724.55H965.884V733.424C965.884 734.18 965.77 734.846 965.542 735.422C965.326 736.01 965.008 736.502 964.588 736.898C964.168 737.306 963.658 737.612 963.058 737.816C962.458 738.032 961.78 738.14 961.024 738.14ZM961.096 732.47C961.684 732.47 962.206 732.332 962.662 732.056C963.118 731.78 963.472 731.402 963.724 730.922C963.976 730.442 964.102 729.89 964.102 729.266C964.102 728.642 963.97 728.09 963.706 727.61C963.454 727.118 963.1 726.734 962.644 726.458C962.2 726.182 961.684 726.044 961.096 726.044C960.52 726.044 960.004 726.188 959.548 726.476C959.104 726.752 958.75 727.136 958.486 727.628C958.234 728.108 958.108 728.654 958.108 729.266C958.108 729.878 958.234 730.43 958.486 730.922C958.75 731.402 959.104 731.78 959.548 732.056C960.004 732.332 960.52 732.47 961.096 732.47ZM973.834 734V724.55H975.688V734H973.834ZM974.734 722.462C974.338 722.462 974.032 722.36 973.816 722.156C973.6 721.952 973.492 721.664 973.492 721.292C973.492 720.944 973.6 720.662 973.816 720.446C974.044 720.23 974.35 720.122 974.734 720.122C975.13 720.122 975.436 720.224 975.652 720.428C975.868 720.632 975.976 720.92 975.976 721.292C975.976 721.64 975.862 721.922 975.634 722.138C975.418 722.354 975.118 722.462 974.734 722.462ZM978.538 734V724.55H980.392V726.494L980.068 726.71C980.188 726.29 980.422 725.906 980.77 725.558C981.118 725.198 981.532 724.91 982.012 724.694C982.492 724.466 982.984 724.352 983.488 724.352C984.208 724.352 984.808 724.496 985.288 724.784C985.768 725.06 986.128 725.486 986.368 726.062C986.608 726.638 986.728 727.364 986.728 728.24V734H984.874V728.366C984.874 727.826 984.802 727.382 984.658 727.034C984.514 726.674 984.292 726.416 983.992 726.26C983.692 726.092 983.32 726.02 982.876 726.044C982.516 726.044 982.186 726.104 981.886 726.224C981.586 726.332 981.322 726.488 981.094 726.692C980.878 726.896 980.704 727.136 980.572 727.412C980.452 727.676 980.392 727.964 980.392 728.276V734H979.474C979.318 734 979.162 734 979.006 734C978.85 734 978.694 734 978.538 734Z" fill="white"/>
</g>
<defs>
<filter id="filter0_d_14_18" x="738" y="262" width="444" height="632" filterUnits="userSpaceOnUse" color-interpolation-filters="sRGB">
<feFlood flood-opacity="0" result="BackgroundImageFix"/>
<feColorMatrix in="SourceAlpha" type="matrix" values="0 0 0 0 0 0 0 0 0 0 0 0 0 0 0 0 0 0 127 0" result="hardAlpha"/>
<feMorphology radius="2" operator="dilate" in="SourceAlpha" result="effect1_dropShadow_14_18"/>
<feOffset/>
<feGaussianBlur stdDeviation="5"/>
<feComposite in2="hardAlpha" operator="out"/>
<feColorMatrix type="matrix" values="0 0 0 0 0.2 0 0 0 0 0.2 0 0 0 0 0.2 0 0 0 0.35 0"/>
<feBlend mode="normal" in2="BackgroundImageFix" result="effect1_dropShadow_14_18"/>
<feBlend mode="normal" in="SourceGraphic" in2="effect1_dropShadow_14_18" result="shape"/>
</filter>
<filter id="filter1_d_14_18" x="801" y="510.2" width="314" height="60.6944" filterUnits="userSpaceOnUse" color-interpolation-filters="sRGB">
<feFlood flood-opacity="0" result="BackgroundImageFix"/>
<feColorMatrix in="SourceAlpha" type="matrix" values="0 0 0 0 0 0 0 0 0 0 0 0 0 0 0 0 0 0 127 0" result="hardAlpha"/>
<feMorphology radius="2" operator="dilate" in="SourceAlpha" result="effect1_dropShadow_14_18"/>
<feOffset/>
<feGaussianBlur stdDeviation="2.5"/>
<feComposite in2="hardAlpha" operator="out"/>
<feColorMatrix type="matrix" values="0 0 0 0 0.2 0 0 0 0 0.2 0 0 0 0 0.2 0 0 0 0.4 0"/>
<feBlend mode="normal" in2="BackgroundImageFix" result="effect1_dropShadow_14_18"/>
<feBlend mode="normal" in="SourceGraphic" in2="effect1_dropShadow_14_18" result="shape"/>
</filter>
<filter id="filter2_d_14_18" x="801" y="571.486" width="314" height="60.6944" filterUnits="userSpaceOnUse" color-interpolation-filters="sRGB">
<feFlood flood-opacity="0" result="BackgroundImageFix"/>
<feColorMatrix in="SourceAlpha" type="matrix" values="0 0 0 0 0 0 0 0 0 0 0 0 0 0 0 0 0 0 127 0" result="hardAlpha"/>
<feMorphology radius="2" operator="dilate" in="SourceAlpha" result="effect1_dropShadow_14_18"/>
<feOffset/>
<feGaussianBlur stdDeviation="2.5"/>
<feComposite in2="hardAlpha" operator="out"/>
<feColorMatrix type="matrix" values="0 0 0 0 0.2 0 0 0 0 0.2 0 0 0 0 0.2 0 0 0 0.4 0"/>
<feBlend mode="normal" in2="BackgroundImageFix" result="effect1_dropShadow_14_18"/>
<feBlend mode="normal" in="SourceGraphic" in2="effect1_dropShadow_14_18" result="shape"/>
</filter>
<filter id="filter3_d_14_18" x="828" y="762" width="272" height="73" filterUnits="userSpaceOnUse" color-interpolation-filters="sRGB">
<feFlood flood-opacity="0" result="BackgroundImageFix"/>
<feColorMatrix in="SourceAlpha" type="matrix" values="0 0 0 0 0 0 0 0 0 0 0 0 0 0 0 0 0 0 127 0" result="hardAlpha"/>
<feOffset dx="3" dy="3"/>
<feGaussianBlur stdDeviation="5"/>
<feComposite in2="hardAlpha" operator="out"/>
<feColorMatrix type="matrix" values="0 0 0 0 0.2 0 0 0 0 0.2 0 0 0 0 0.2 0 0 0 0.5 0"/>
<feBlend mode="normal" in2="BackgroundImageFix" result="effect1_dropShadow_14_18"/>
<feBlend mode="normal" in="SourceGraphic" in2="effect1_dropShadow_14_18" result="shape"/>
</filter>
<filter id="filter4_d_14_18" x="828" y="694" width="272" height="73" filterUnits="userSpaceOnUse" color-interpolation-filters="sRGB">
<feFlood flood-opacity="0" result="BackgroundImageFix"/>
<feColorMatrix in="SourceAlpha" type="matrix" values="0 0 0 0 0 0 0 0 0 0 0 0 0 0 0 0 0 0 127 0" result="hardAlpha"/>
<feOffset dx="3" dy="3"/>
<feGaussianBlur stdDeviation="5"/>
<feComposite in2="hardAlpha" operator="out"/>
<feColorMatrix type="matrix" values="0 0 0 0 0.2 0 0 0 0 0.2 0 0 0 0 0.2 0 0 0 0.5 0"/>
<feBlend mode="normal" in2="BackgroundImageFix" result="effect1_dropShadow_14_18"/>
<feBlend mode="normal" in="SourceGraphic" in2="effect1_dropShadow_14_18" result="shape"/>
</filter>
<clipPath id="clip0_14_18">
<rect width="1920" height="1081" fill="white"/>
</clipPath>
</defs>
</svg>
