<svg width="31" height="31" viewBox="0 0 31 31" fill="none" xmlns="http://www.w3.org/2000/svg">
<path d="M31 15.5C31 24.0604 24.0604 31 15.5 31C6.93959 31 0 24.0604 0 15.5C0 6.93959 6.93959 0 15.5 0C24.0604 0 31 6.93959 31 15.5ZM2.01201 15.5C2.01201 22.9492 8.05079 28.988 15.5 28.988C22.9492 28.988 28.988 22.9492 28.988 15.5C28.988 8.05079 22.9492 2.01201 15.5 2.01201C8.05079 2.01201 2.01201 8.05079 2.01201 15.5Z" fill="white"/>
<circle cx="15.5" cy="23.2501" r="2.325" fill="white"/>
<rect x="13.95" y="4.65015" width="3.1" height="13.95" rx="1.55" fill="white"/>
</svg>
